<?xml version="1.0" encoding="utf-8"?>
<!-- Generator: Adobe Illustrator 22.0.1, SVG Export Plug-In . SVG Version: 6.00 Build 0)  -->
<svg version="1.1" id="Layer_1" xmlns="http://www.w3.org/2000/svg" xmlns:xlink="http://www.w3.org/1999/xlink" x="0px" y="0px"
	 viewBox="0 0 446 451" style="enable-background:new 0 0 446 451;" xml:space="preserve">
<style type="text/css">
	.st0{display:none;opacity:0.9;fill:#DFE4E5;enable-background:new    ;}
	.st1{fill:url(#SVGID_1_);}
	.st2{display:none;}
	.st3{display:inline;fill:none;stroke:#000000;}
	.st4{display:inline;fill:#FFFFFF;}
	.st5{opacity:0.5;}
	.st6{display:none;fill:none;stroke:#5F6F72;}
	.st7{fill:none;stroke:#5F6F72;}
	.st8{opacity:0.5;fill:none;stroke:#5F6F72;enable-background:new    ;}
	.st9{fill:#FFFFFF;stroke:#5F6F72;stroke-width:2;}
	.st10{fill:none;stroke:#5F6F72;stroke-width:2;}
	.st11{opacity:0.8;}
	.st12{display:inline;fill:none;stroke:#849299;}
	.st13{fill:#FFFFFF;stroke:#5F6F72;}
	.st14{fill:#DFE4E5;stroke:#5F6F72;stroke-width:2;}
	.st15{display:inline;}
	.st16{fill:#FFFFFF;stroke:#8E9FA5;stroke-width:0.5;}
	.st17{fill:#F2F2F2;stroke:#8FA5A8;stroke-width:2;}
	.st18{fill:#FFFFFF;}
	.st19{font-family:'Raleway-Black';}
	.st20{font-size:114.3691px;}
	.st21{fill:none;stroke:#272828;stroke-width:3;}
	.st22{font-family:'MavenPro-Black';}
	.st23{font-size:88.8403px;}
	.st24{letter-spacing:4.2;}
</style>
<g id="Layer_8">
	<circle class="st0" cx="219.5" cy="224.5" r="161.5"/>
	
		<radialGradient id="SVGID_1_" cx="221.25" cy="216.5" r="169.551" gradientTransform="matrix(1 0 0 -1 0 452)" gradientUnits="userSpaceOnUse">
		<stop  offset="0" style="stop-color:#222222"/>
		<stop  offset="0.2022" style="stop-color:#252525;stop-opacity:0.7978"/>
		<stop  offset="0.343" style="stop-color:#2E2E2E;stop-opacity:0.657"/>
		<stop  offset="0.4652" style="stop-color:#3D3D3D;stop-opacity:0.5348"/>
		<stop  offset="0.5768" style="stop-color:#535353;stop-opacity:0.4232"/>
		<stop  offset="0.6813" style="stop-color:#707070;stop-opacity:0.3187"/>
		<stop  offset="0.7803" style="stop-color:#929292;stop-opacity:0.2197"/>
		<stop  offset="0.8752" style="stop-color:#BCBCBC;stop-opacity:0.1248"/>
		<stop  offset="0.9645" style="stop-color:#EAEAEA;stop-opacity:3.552890e-02"/>
		<stop  offset="1" style="stop-color:#FFFFFF;stop-opacity:0"/>
	</radialGradient>
	<rect x="-6.5" y="160.5" class="st1" width="455.5" height="150"/>
</g>
<g id="Layer_6">
	<g class="st2">
		<path class="st3" d="M349.5,393.5c-22.2-50.6-72.7-86-131.5-86s-109.3,35.4-131.5,86H349.5z"/>
		<rect x="81.5" y="389.5" class="st4" width="269" height="30"/>
	</g>
	<g class="st2">
		<path class="st3" d="M351.5,50.5c-22.2,50.6-72.7,86-131.5,86s-109.3-35.4-131.5-86H351.5z"/>
		<rect x="83.5" y="24.5" class="st4" width="269" height="30"/>
	</g>
</g>
<g id="Layer_7">
	<g class="st5">
		<line class="st6" x1="374" y1="57" x2="239.4" y2="249.3"/>
		<line class="st7" x1="398.3" y1="79.7" x2="220.7" y2="226.1"/>
		<line class="st6" x1="370.8" y1="60.5" x2="259.9" y2="271.9"/>
		<line class="st7" x1="411.9" y1="109.9" x2="219.6" y2="227.3"/>
		<line class="st6" x1="364.6" y1="67.3" x2="281.2" y2="295"/>
		<line class="st6" x1="353.1" y1="79.9" x2="299.9" y2="315.4"/>
		<line class="st6" x1="341" y1="93.1" x2="319.9" y2="337.1"/>
		<line class="st6" x1="325" y1="110.7" x2="335.9" y2="354.7"/>
		<line class="st6" x1="308.5" y1="128.9" x2="347.6" y2="367.2"/>
		<line class="st6" x1="359.9" y1="380.5" x2="289.4" y2="150"/>
		<line class="st6" x1="368.9" y1="390.2" x2="270.9" y2="170.3"/>
		<line class="st6" x1="251.7" y1="191.4" x2="374.8" y2="396.5"/>
		<line class="st6" x1="232.9" y1="212.8" x2="376.4" y2="398"/>
		<line class="st7" x1="220.3" y1="226" x2="398.6" y2="370.2"/>
		<line class="st7" x1="220.3" y1="226.1" x2="411.3" y2="344.9"/>
		<line class="st7" x1="220.2" y1="226.3" x2="424" y2="321"/>
		<line class="st7" x1="220.1" y1="226.4" x2="432.3" y2="292.2"/>
		<line class="st7" x1="220" y1="226.5" x2="436.7" y2="264.7"/>
		<line class="st7" x1="423.5" y1="129.6" x2="219.6" y2="227.2"/>
		<line class="st7" x1="439.2" y1="237.9" x2="220" y2="226.6"/>
		<line class="st7" x1="219" y1="226.9" x2="436.7" y2="206.7"/>
		<line class="st7" x1="435.6" y1="163" x2="220.5" y2="226.5"/>
		<line class="st7" x1="219.8" y1="226.9" x2="434.6" y2="186.6"/>
	</g>
	<g class="st5">
		<line class="st6" x1="71.2" y1="56" x2="205.8" y2="248.3"/>
		<line class="st7" x1="45.1" y1="85" x2="226.3" y2="226.8"/>
		<line class="st6" x1="74.4" y1="59.5" x2="185.3" y2="270.9"/>
		<line class="st7" x1="33.3" y1="108.9" x2="225.6" y2="226.3"/>
		<line class="st6" x1="80.7" y1="66.3" x2="164" y2="294"/>
		<line class="st6" x1="92.1" y1="78.9" x2="145.3" y2="314.4"/>
		<line class="st6" x1="104.2" y1="92.1" x2="125.3" y2="336.1"/>
		<line class="st6" x1="120.2" y1="109.7" x2="109.3" y2="353.7"/>
		<line class="st6" x1="136.7" y1="127.9" x2="97.6" y2="366.2"/>
		<line class="st6" x1="85.3" y1="379.5" x2="155.9" y2="149"/>
		<line class="st6" x1="76.3" y1="389.2" x2="174.4" y2="169.3"/>
		<line class="st6" x1="193.5" y1="190.4" x2="70.4" y2="395.5"/>
		<line class="st6" x1="212.4" y1="211.8" x2="68.8" y2="397"/>
		<line class="st7" x1="224.9" y1="225" x2="46.7" y2="369.2"/>
		<line class="st7" x1="225" y1="225.1" x2="33.9" y2="343.9"/>
		<line class="st7" x1="225" y1="225.3" x2="21.2" y2="320"/>
		<line class="st7" x1="225.1" y1="225.4" x2="12.9" y2="291.2"/>
		<line class="st7" x1="225.2" y1="225.5" x2="8.5" y2="263.7"/>
		<line class="st7" x1="21.7" y1="128.6" x2="225.6" y2="226.2"/>
		<line class="st7" x1="6" y1="236.9" x2="225.2" y2="225.6"/>
		<line class="st7" x1="226.2" y1="225.9" x2="8.5" y2="205.7"/>
		<line class="st7" x1="9.6" y1="162" x2="224.7" y2="225.5"/>
		<line class="st7" x1="225.4" y1="225.9" x2="10.7" y2="185.6"/>
	</g>
</g>
<g id="Layer_1_1_">
	<circle class="st8" cx="219.5" cy="314.5" r="65"/>
	<circle class="st8" cx="220.5" cy="135.5" r="65"/>
	<path class="st9" d="M220.2,17L12.3,224.9l207.9,207.9l207.9-207.9L220.2,17z M31.2,225.9l189-189l189,189l-189,189L31.2,225.9z"/>
	<line class="st10" x1="38.5" y1="310.5" x2="418.5" y2="310.5"/>
	<line class="st10" x1="40.5" y1="160.5" x2="418.5" y2="160.5"/>
	<g class="st11">
		<line class="st10" x1="369" y1="374" x2="72" y2="77"/>
		<line class="st10" x1="63" y1="384" x2="370" y2="77"/>
		<line class="st10" x1="149.5" y1="147.5" x2="219.7" y2="413.2"/>
		<line class="st10" x1="294.5" y1="145.5" x2="220.3" y2="416.2"/>
		<line class="st10" x1="149.5" y1="303.2" x2="219.7" y2="37.5"/>
		<line class="st10" x1="294.5" y1="307.2" x2="220.3" y2="36.5"/>
	</g>
	<g class="st5">
		<line class="st7" x1="189.6" y1="7" x2="253.3" y2="440"/>
		<line class="st7" x1="251.4" y1="7" x2="187.7" y2="440"/>
	</g>
</g>
<g id="Layer_3">
	<g class="st2">
		<line class="st12" x1="201.2" y1="57" x2="52.7" y2="249.3"/>
		<line class="st12" x1="203.3" y1="55" x2="30.8" y2="227.5"/>
		<line class="st12" x1="228" y1="79.7" x2="32.1" y2="226.1"/>
		<line class="st12" x1="197.7" y1="60.5" x2="75.4" y2="271.9"/>
		<line class="st12" x1="243" y1="109.9" x2="30.9" y2="227.3"/>
		<line class="st12" x1="190.8" y1="67.3" x2="98.9" y2="295"/>
		<line class="st12" x1="178.2" y1="79.9" x2="119.5" y2="315.4"/>
		<line class="st12" x1="164.8" y1="93.1" x2="141.5" y2="337.1"/>
		<line class="st12" x1="147.2" y1="110.7" x2="159.2" y2="354.7"/>
		<line class="st12" x1="129" y1="128.9" x2="172.1" y2="367.2"/>
		<line class="st12" x1="185.6" y1="380.5" x2="107.8" y2="150"/>
		<line class="st12" x1="195.6" y1="390.2" x2="87.4" y2="170.3"/>
		<line class="st12" x1="66.3" y1="191.4" x2="202.1" y2="396.5"/>
		<line class="st12" x1="45.5" y1="212.8" x2="203.9" y2="398"/>
		<line class="st12" x1="31.8" y1="225.8" x2="210.7" y2="389.2"/>
		<line class="st12" x1="31.7" y1="226" x2="228.3" y2="370.2"/>
		<line class="st12" x1="31.6" y1="226.1" x2="242.3" y2="344.9"/>
		<line class="st12" x1="31.5" y1="226.3" x2="256.4" y2="321"/>
		<line class="st12" x1="31.4" y1="226.4" x2="265.5" y2="292.2"/>
		<line class="st12" x1="31.3" y1="226.5" x2="270.3" y2="264.7"/>
		<line class="st12" x1="255.8" y1="129.6" x2="30.9" y2="227.2"/>
		<line class="st12" x1="273.1" y1="237.9" x2="31.3" y2="226.6"/>
		<line class="st12" x1="31.2" y1="226.8" x2="269.4" y2="190.8"/>
		<line class="st12" x1="270" y1="170.5" x2="31" y2="227"/>
		<line class="st12" x1="31.1" y1="226.9" x2="268" y2="186.6"/>
	</g>
	<g class="st2">
		<line class="st12" x1="238.7" y1="57" x2="387.2" y2="249.3"/>
		<line class="st12" x1="236.6" y1="55" x2="409.1" y2="227.5"/>
		<line class="st12" x1="211.9" y1="79.7" x2="407.7" y2="226.1"/>
		<line class="st12" x1="242.2" y1="60.5" x2="364.5" y2="271.9"/>
		<line class="st12" x1="196.9" y1="109.9" x2="409" y2="227.3"/>
		<line class="st12" x1="249.1" y1="67.3" x2="341" y2="295"/>
		<line class="st12" x1="261.7" y1="79.9" x2="320.4" y2="315.4"/>
		<line class="st12" x1="275" y1="93.1" x2="298.4" y2="337.1"/>
		<line class="st12" x1="292.7" y1="110.7" x2="280.7" y2="354.7"/>
		<line class="st12" x1="310.9" y1="128.9" x2="267.8" y2="367.2"/>
		<line class="st12" x1="254.3" y1="380.5" x2="332.1" y2="150"/>
		<line class="st12" x1="244.3" y1="390.2" x2="352.5" y2="170.3"/>
		<line class="st12" x1="373.6" y1="191.4" x2="237.8" y2="396.5"/>
		<line class="st12" x1="394.4" y1="212.8" x2="236" y2="398"/>
		<line class="st12" x1="408.1" y1="225.8" x2="229.2" y2="389.2"/>
		<line class="st12" x1="408.2" y1="226" x2="211.6" y2="370.2"/>
		<line class="st12" x1="408.3" y1="226.1" x2="197.6" y2="344.9"/>
		<line class="st12" x1="408.4" y1="226.3" x2="183.5" y2="321"/>
		<line class="st12" x1="408.5" y1="226.4" x2="174.4" y2="292.2"/>
		<line class="st12" x1="408.6" y1="226.5" x2="169.6" y2="264.7"/>
		<line class="st12" x1="184.1" y1="129.6" x2="409" y2="227.2"/>
		<line class="st12" x1="166.8" y1="237.9" x2="408.6" y2="226.6"/>
		<line class="st12" x1="408.7" y1="226.8" x2="170.4" y2="190.8"/>
		<line class="st12" x1="169.9" y1="170.5" x2="408.9" y2="227"/>
		<line class="st12" x1="408.8" y1="226.9" x2="171.9" y2="186.6"/>
	</g>
	<circle class="st13" cx="219.5" cy="224.5" r="122"/>
	<g id="Layer_5" class="st2">
		<line class="st12" x1="204.1" y1="-35.3" x2="251.9" y2="335.6"/>
		<line class="st12" x1="228.8" y1="-39.8" x2="228.8" y2="335.8"/>
		<line class="st12" x1="254.9" y1="-39.8" x2="201.1" y2="332.7"/>
		<line class="st12" x1="178" y1="-27.7" x2="274.9" y2="335.5"/>
		<line class="st12" x1="281.1" y1="-23.2" x2="178" y2="335.4"/>
		<line class="st12" x1="153.4" y1="-12.7" x2="301.1" y2="335.1"/>
		<line class="st12" x1="130.3" y1="14.7" x2="322.7" y2="334.9"/>
		<line class="st12" x1="105.6" y1="43.6" x2="345.7" y2="334.5"/>
		<line class="st12" x1="87.2" y1="81.9" x2="365.7" y2="334.4"/>
		<line class="st12" x1="71.8" y1="121.6" x2="378.1" y2="334"/>
		<line class="st12" x1="391.9" y1="333.7" x2="56.4" y2="167.5"/>
		<line class="st12" x1="404.2" y1="333.5" x2="47.2" y2="211.9"/>
		<line class="st12" x1="42.5" y1="257.8" x2="413.5" y2="333.2"/>
		<line class="st12" x1="41" y1="303.7" x2="415" y2="332.9"/>
		<line class="st12" x1="42.5" y1="332.8" x2="415" y2="315.9"/>
		<line class="st12" x1="41" y1="333.1" x2="411.9" y2="276.1"/>
		<line class="st12" x1="45.6" y1="333.3" x2="404.2" y2="233.3"/>
		<line class="st12" x1="50.2" y1="333.6" x2="398.1" y2="192"/>
		<line class="st12" x1="57.9" y1="333.8" x2="384.2" y2="150.7"/>
		<line class="st12" x1="68.7" y1="334.1" x2="370.4" y2="115.6"/>
		<line class="st12" x1="298" y1="-15.7" x2="159.5" y2="335.3"/>
		<line class="st12" x1="356.5" y1="83.4" x2="81" y2="334.2"/>
		<line class="st12" x1="96.4" y1="334.6" x2="316.5" y2="36"/>
		<line class="st12" x1="335" y1="13.3" x2="136.4" y2="335"/>
		<line class="st12" x1="113.3" y1="334.7" x2="327.3" y2="33.1"/>
	</g>
	<circle class="st14" cx="219.5" cy="225.5" r="105"/>
	<g class="st11">
		<g>
			<circle class="st13" cx="78" cy="199" r="5.5"/>
			<circle class="st13" cx="68" cy="213" r="6.5"/>
			<circle class="st13" cx="87" cy="186" r="4.5"/>
		</g>
		<g>
			<circle class="st13" cx="79.9" cy="254.1" r="5.5"/>
			<circle class="st13" cx="70.5" cy="239.7" r="6.5"/>
			<circle class="st13" cx="88.5" cy="267.4" r="4.5"/>
		</g>
	</g>
	<g class="st11">
		<g>
			<circle class="st13" cx="364.5" cy="199" r="5.5"/>
			<circle class="st13" cx="374.5" cy="213" r="6.5"/>
			<circle class="st13" cx="355.5" cy="186" r="4.5"/>
		</g>
		<g>
			<circle class="st13" cx="362.5" cy="254.1" r="5.5"/>
			<circle class="st13" cx="372" cy="239.7" r="6.5"/>
			<circle class="st13" cx="354" cy="267.4" r="4.5"/>
		</g>
	</g>
	<g class="st2">
		<g class="st15">
			<circle class="st16" cx="164.1" cy="391.6" r="5"/>
			<circle class="st16" cx="176.5" cy="403.2" r="5"/>
			<circle class="st16" cx="188" cy="414.8" r="5"/>
			<circle class="st16" cx="200.4" cy="426.5" r="5"/>
		</g>
		<g class="st15">
			<circle class="st16" cx="278.4" cy="390.6" r="5"/>
			<circle class="st16" cx="266" cy="402.2" r="5"/>
			<circle class="st16" cx="254.5" cy="413.8" r="5"/>
			<circle class="st16" cx="242.1" cy="425.5" r="5"/>
		</g>
	</g>
	<g class="st2">
		<g class="st15">
			<circle class="st16" cx="163.4" cy="57.5" r="5"/>
			<circle class="st16" cx="175.8" cy="45.8" r="5"/>
			<circle class="st16" cx="187.2" cy="34.2" r="5"/>
			<circle class="st16" cx="199.6" cy="22.5" r="5"/>
		</g>
		<g class="st15">
			<circle class="st16" cx="277.6" cy="58.5" r="5"/>
			<circle class="st16" cx="265.2" cy="46.8" r="5"/>
			<ellipse transform="matrix(0.1602 -0.9871 0.9871 0.1602 178.4002 280.0844)" class="st16" cx="253.8" cy="35.2" rx="5" ry="5"/>
			<circle class="st16" cx="241.4" cy="23.5" r="5"/>
		</g>
	</g>
	<g class="st5">
		<circle class="st7" cx="253.5" cy="160.5" r="32"/>
		<circle class="st7" cx="190.5" cy="159.5" r="32"/>
		<circle class="st7" cx="288.5" cy="211.5" r="32"/>
		<circle class="st7" cx="275.5" cy="270.5" r="32"/>
		<circle class="st7" cx="224.5" cy="296.5" r="32"/>
		<circle class="st7" cx="163.5" cy="270.5" r="32"/>
		<circle class="st7" cx="148.5" cy="206.5" r="32"/>
	</g>
	<circle class="st17" cx="219.5" cy="226.5" r="75"/>
</g>
<g id="Layer_4" class="st2">
</g>
<g id="Layer_9">
	<text transform="matrix(1.1775 0 0 1 153.2363 310.2852)" class="st18 st19 st20">IX</text>
	<text transform="matrix(1.1775 0 0 1 153.2363 310.2852)" class="st21 st19 st20">IX</text>
	<text transform="matrix(1.1775 0 0 1 100.9858 220.0479)" class="st18 st22 st23 st24">W</text>
	<text transform="matrix(1.1775 0 0 1 100.9858 220.0479)" class="st21 st22 st23 st24">W</text>
	<text transform="matrix(1.1775 0 0 1 213.291 220.0479)" class="st18 st22 st23">TF</text>
	<text transform="matrix(1.1775 0 0 1 213.291 220.0479)" class="st21 st22 st23">TF</text>
</g>
</svg>
